<svg width="2160" height="858" viewBox="0 0 2160 858" fill="none" xmlns="http://www.w3.org/2000/svg">
<mask id="mask0_2_696" style="mask-type:alpha" maskUnits="userSpaceOnUse" x="-1681" y="0" width="5522" height="858">
<g opacity="0.4" clip-path="url(#clip0_2_696)">
<path opacity="0.1" d="M86.0958 5.34775C83.0423 8.32514 72.7061 10.7533 63.0327 10.7533C53.3593 10.7533 48.0963 8.32514 51.2603 5.34775C54.4243 2.37035 64.6896 0 74.2605 0C83.8313 0 89.1335 2.38962 86.0958 5.34775Z" fill="white"/>
<path opacity="0.1" d="M310.833 5.34775C308.466 8.32514 298.698 10.7533 289.024 10.7533C279.351 10.7533 273.52 8.32514 275.997 5.34775C278.475 2.37035 288.188 0 297.759 0C307.33 0 313.184 2.38962 310.833 5.34775Z" fill="white"/>
<path opacity="0.1" d="M535.57 5.34775C533.898 8.32514 524.69 10.7533 515.016 10.7533C505.343 10.7533 498.952 8.32514 500.735 5.34775C502.518 2.37035 511.687 0 521.258 0C530.829 0 537.243 2.38962 535.578 5.34775H535.57Z" fill="white"/>
<path opacity="0.1" d="M760.316 5.34775C759.329 8.32514 750.689 10.7533 741.016 10.7533C731.343 10.7533 724.383 8.32514 725.48 5.34775C726.577 2.37035 735.185 0 744.756 0C754.327 0 761.294 2.38962 760.316 5.34775Z" fill="white"/>
<path opacity="0.1" d="M985.053 5.34775C984.761 8.32514 976.682 10.7533 967.008 10.7533C957.335 10.7533 949.815 8.32514 950.218 5.34775C950.62 2.37035 958.692 0 968.263 0C977.834 0 985.353 2.38962 985.061 5.34775H985.053Z" fill="white"/>
<path opacity="0.1" d="M1209.79 5.34775C1210.19 8.32514 1202.67 10.7533 1193 10.7533C1183.33 10.7533 1175.25 8.32514 1174.96 5.34775C1174.66 2.37035 1182.19 0 1191.75 0C1201.32 0 1209.4 2.38962 1209.8 5.34775H1209.79Z" fill="white"/>
<path opacity="0.1" d="M1434.53 5.34775C1435.62 8.32514 1428.67 10.7533 1418.99 10.7533C1409.32 10.7533 1400.67 8.32514 1399.69 5.34775C1398.71 2.37035 1405.68 0 1415.25 0C1424.82 0 1433.45 2.38962 1434.54 5.34775H1434.53Z" fill="white"/>
<path opacity="0.1" d="M1659.26 5.34775C1661.05 8.32514 1654.66 10.7533 1644.98 10.7533C1635.31 10.7533 1626.1 8.32514 1624.43 5.34775C1622.76 2.37035 1629.18 0 1638.75 0C1648.32 0 1657.51 2.38962 1659.27 5.34775H1659.26Z" fill="white"/>
<path opacity="0.1" d="M1884 5.34775C1886.47 8.32514 1880.65 10.7533 1870.98 10.7533C1861.3 10.7533 1851.53 8.32514 1849.17 5.34775C1846.81 2.37035 1852.68 0 1862.24 0C1871.8 0 1881.55 2.38962 1884 5.34775Z" fill="white"/>
<path opacity="0.1" d="M2108.74 5.34775C2111.9 8.32514 2106.64 10.7533 2096.97 10.7533C2087.29 10.7533 2076.96 8.32514 2073.9 5.34775C2070.87 2.38962 2076.18 0 2085.74 0C2095.3 0 2105.6 2.38962 2108.75 5.34775H2108.74Z" fill="white"/>
<path opacity="0.3" d="M3.0821 86.2866C-0.507954 89.7843 -11.9408 92.6364 -22.4269 92.6364C-32.913 92.6364 -38.3888 89.7843 -34.6725 86.2866C-30.9799 82.8081 -19.6101 80.0042 -9.24233 80.0042C1.12543 80.0042 6.64848 82.8081 3.0821 86.2866Z" fill="white"/>
<path opacity="0.3" d="M246.59 86.2866C243.813 89.7843 233.043 92.6364 222.557 92.6364C212.071 92.6364 205.932 89.7843 208.836 86.2866C211.723 82.8081 222.446 80.0042 232.806 80.0042C243.166 80.0042 249.344 82.8081 246.583 86.2866H246.59Z" fill="white"/>
<path opacity="0.3" d="M490.099 86.2866C488.134 89.7843 478.027 92.6364 467.541 92.6364C457.055 92.6364 450.253 89.7843 452.352 86.2866C454.451 82.7888 464.503 80.0042 474.871 80.0042C485.239 80.0042 492.064 82.8081 490.107 86.2866H490.099Z" fill="white"/>
<path opacity="0.3" d="M733.607 86.2866C732.455 89.7843 723.011 92.6364 712.525 92.6364C702.039 92.6364 694.582 89.7843 695.86 86.2866C697.139 82.7888 706.56 80.0042 716.92 80.0042C727.279 80.0042 734.759 82.8081 733.607 86.2866Z" fill="white"/>
<path opacity="0.3" d="M977.123 86.2866C976.784 89.7843 968.002 92.6364 957.508 92.6364C947.014 92.6364 938.903 89.7843 939.369 86.2866C939.834 82.7888 948.608 80.0042 958.976 80.0042C969.344 80.0042 977.463 82.8081 977.123 86.2866Z" fill="white"/>
<path opacity="0.3" d="M1220.63 86.2866C1221.1 89.7843 1212.98 92.6364 1202.49 92.6364C1192.01 92.6364 1183.22 89.7843 1182.88 86.2866C1182.53 82.7888 1190.66 80.0042 1201.02 80.0042C1211.38 80.0042 1220.17 82.8081 1220.63 86.2866Z" fill="white"/>
<path opacity="0.3" d="M1464.14 86.2866C1465.42 89.7843 1457.96 92.6364 1447.48 92.6364C1436.99 92.6364 1427.54 89.7843 1426.39 86.2866C1425.24 82.7888 1432.72 80.0042 1443.08 80.0042C1453.44 80.0042 1462.87 82.8081 1464.14 86.2866Z" fill="white"/>
<path opacity="0.3" d="M1707.65 86.2866C1709.74 89.7843 1702.95 92.6364 1692.46 92.6364C1681.97 92.6364 1671.87 89.7843 1669.9 86.2866C1667.94 82.8081 1674.78 80.0042 1685.14 80.0042C1695.5 80.0042 1705.57 82.8081 1707.66 86.2866H1707.65Z" fill="white"/>
<path opacity="0.3" d="M1951.16 86.2866C1954.06 89.7843 1947.93 92.6364 1937.44 92.6364C1926.94 92.6364 1916.18 89.7843 1913.4 86.2866C1910.64 82.8081 1916.82 80.0042 1927.18 80.0042C1937.54 80.0042 1948.27 82.8081 1951.15 86.2866H1951.16Z" fill="white"/>
<path opacity="0.3" d="M2194.67 86.2866C2198.38 89.7843 2192.91 92.6364 2182.42 92.6364C2171.93 92.6364 2160.5 89.7843 2156.91 86.2866C2153.34 82.8081 2158.88 80.0042 2169.23 80.0042C2179.59 80.0042 2190.97 82.8081 2194.67 86.2866Z" fill="white"/>
<path opacity="0.5" d="M170.639 181.968C167.333 186.14 155.348 189.541 143.899 189.541C132.451 189.541 125.988 186.14 129.444 181.968C132.9 177.796 144.807 174.5 156.106 174.5C167.404 174.5 173.922 177.834 170.639 181.968Z" fill="white"/>
<path opacity="0.5" d="M436.343 181.968C433.999 186.14 422.811 189.541 411.354 189.541C399.898 189.541 392.655 186.14 395.148 181.968C397.641 177.796 408.774 174.5 420.073 174.5C431.372 174.5 438.662 177.834 436.335 181.968H436.343Z" fill="white"/>
<path opacity="0.5" d="M702.046 181.968C700.674 186.14 690.266 189.541 678.818 189.541C667.369 189.541 659.329 186.14 660.852 181.968C662.374 177.796 672.742 174.5 684.049 174.5C695.355 174.5 703.411 177.834 702.046 181.968Z" fill="white"/>
<path opacity="0.5" d="M967.742 181.968C967.332 186.14 957.721 189.541 946.265 189.541C934.808 189.541 925.987 186.14 926.547 181.968C927.107 177.796 936.71 174.5 948.008 174.5C959.307 174.5 968.144 177.834 967.742 181.968Z" fill="white"/>
<path opacity="0.5" d="M1233.45 181.968C1234.01 186.14 1225.18 189.541 1213.73 189.541C1202.28 189.541 1192.66 186.14 1192.25 181.968C1191.84 177.796 1200.68 174.5 1211.98 174.5C1223.29 174.5 1232.89 177.834 1233.45 181.968Z" fill="white"/>
<path opacity="0.5" d="M1499.15 181.968C1500.67 186.14 1492.64 189.541 1481.18 189.541C1469.73 189.541 1459.33 186.14 1457.95 181.968C1456.58 177.796 1464.65 174.5 1475.95 174.5C1487.25 174.5 1497.63 177.834 1499.15 181.968Z" fill="white"/>
<path opacity="0.5" d="M1764.84 181.968C1767.34 186.14 1760.09 189.541 1748.64 189.541C1737.19 189.541 1725.99 186.14 1723.65 181.968C1721.31 177.796 1728.61 174.5 1739.91 174.5C1751.21 174.5 1762.37 177.834 1764.84 181.968H1764.84Z" fill="white"/>
<path opacity="0.5" d="M2030.55 181.968C2034 186.14 2027.55 189.541 2016.09 189.541C2004.64 189.541 1992.66 186.14 1989.35 181.968C1986.05 177.796 1992.58 174.5 2003.89 174.5C2015.19 174.5 2027.12 177.834 2030.55 181.968Z" fill="white"/>
<path opacity="0.7" d="M79.4518 296.843C75.4436 301.892 61.9514 306.016 49.3507 306.016C36.75 306.016 29.9407 301.892 34.1304 296.843C38.2885 291.833 51.7019 287.805 64.129 287.805C76.5562 287.805 83.4285 291.833 79.4518 296.843Z" fill="white"/>
<path opacity="0.7" d="M371.801 296.843C368.968 301.892 356.431 306.016 343.822 306.016C331.213 306.016 323.457 301.892 326.479 296.843C329.501 291.794 341.952 287.805 354.379 287.805C366.806 287.805 374.61 291.833 371.801 296.843Z" fill="white"/>
<path opacity="0.7" d="M664.142 296.843C662.477 301.892 650.894 306.016 638.293 306.016C625.692 306.016 616.974 301.892 618.82 296.843C620.666 291.794 632.202 287.805 644.629 287.805C657.056 287.805 665.799 291.833 664.149 296.843H664.142Z" fill="white"/>
<path opacity="0.7" d="M956.49 296.843C955.993 301.892 945.373 306.016 932.764 306.016C920.156 306.016 910.49 301.892 911.169 296.843C911.847 291.794 922.452 287.805 934.879 287.805C947.306 287.805 956.98 291.833 956.49 296.843Z" fill="white"/>
<path opacity="0.7" d="M1248.83 296.843C1249.51 301.892 1239.84 306.016 1227.24 306.016C1214.64 306.016 1204.01 301.892 1203.51 296.843C1203.01 291.794 1212.69 287.805 1225.12 287.805C1237.55 287.805 1248.16 291.833 1248.83 296.843Z" fill="white"/>
<path opacity="0.7" d="M1541.17 296.843C1543.02 301.892 1534.31 306.016 1521.7 306.016C1509.09 306.016 1497.52 301.892 1495.85 296.843C1494.19 291.794 1502.94 287.805 1515.37 287.805C1527.8 287.805 1539.34 291.833 1541.18 296.843H1541.17Z" fill="white"/>
<path opacity="0.7" d="M1833.52 296.843C1836.53 301.892 1828.79 306.016 1816.18 306.016C1803.57 306.016 1791.04 301.892 1788.2 296.843C1785.36 291.794 1793.19 287.805 1805.62 287.805C1818.05 287.805 1830.53 291.833 1833.52 296.843Z" fill="white"/>
<path opacity="0.7" d="M2125.86 296.843C2130.05 301.892 2123.25 306.016 2110.64 306.016C2098.03 306.016 2084.54 301.892 2080.54 296.843C2076.56 291.833 2083.44 287.805 2095.86 287.805C2108.29 287.805 2121.7 291.833 2125.86 296.843Z" fill="white"/>
<path opacity="0.8" d="M292.867 437.33C289.364 443.564 275.13 448.671 261.109 448.671C247.088 448.671 238.764 443.574 242.496 437.33C246.188 431.144 260.351 426.172 274.151 426.172C287.951 426.172 296.346 431.144 292.867 437.33Z" fill="white"/>
<path opacity="0.8" d="M617.794 437.33C615.735 443.564 602.685 448.671 588.664 448.671C574.643 448.671 565.135 443.574 567.423 437.33C569.711 431.086 582.691 426.172 596.491 426.172C610.291 426.172 619.838 431.144 617.794 437.33Z" fill="white"/>
<path opacity="0.8" d="M942.722 437.33C942.115 443.564 930.24 448.671 916.219 448.671C902.198 448.671 891.514 443.574 892.343 437.33C893.171 431.086 905.023 426.172 918.823 426.172C932.623 426.172 943.322 431.144 942.714 437.33H942.722Z" fill="white"/>
<path opacity="0.8" d="M1267.65 437.33C1268.49 443.564 1257.8 448.671 1243.77 448.671C1229.74 448.671 1217.89 443.574 1217.27 437.33C1216.65 431.086 1227.36 426.172 1241.16 426.172C1254.96 426.172 1266.81 431.144 1267.64 437.33H1267.65Z" fill="white"/>
<path opacity="0.8" d="M1592.58 437.33C1594.86 443.564 1585.36 448.671 1571.34 448.671C1557.32 448.671 1544.27 443.574 1542.21 437.33C1540.16 431.144 1549.71 426.172 1563.51 426.172C1577.31 426.172 1590.31 431.144 1592.58 437.33Z" fill="white"/>
<path opacity="0.8" d="M1917.5 437.33C1921.23 443.564 1912.9 448.671 1898.88 448.671C1884.86 448.671 1870.63 443.574 1867.13 437.33C1863.65 431.144 1872.04 426.172 1885.84 426.172C1899.64 426.172 1913.8 431.144 1917.5 437.33Z" fill="white"/>
<path opacity="0.9" d="M194.144 613.054C189.702 620.965 173.259 627.43 157.463 627.43C141.666 627.43 132.727 620.965 137.453 613.054C142.132 605.23 158.473 598.938 173.985 598.938C189.497 598.938 198.547 605.23 194.144 613.054Z" fill="white"/>
<path opacity="0.9" d="M559.825 613.054C557.213 620.965 542.277 627.43 526.481 627.43C510.685 627.43 500.246 620.965 503.134 613.054C506.021 605.143 520.879 598.938 536.391 598.938C551.903 598.938 562.405 605.23 559.825 613.054Z" fill="white"/>
<path opacity="0.9" d="M1656.87 613.054C1659.76 620.965 1649.32 627.43 1633.52 627.43C1617.72 627.43 1602.78 620.965 1600.17 613.054C1597.57 605.143 1608.1 598.938 1623.61 598.938C1639.12 598.938 1654 605.23 1656.87 613.054Z" fill="white"/>
<path opacity="0.9" d="M2022.55 613.054C2027.27 620.965 2018.33 627.43 2002.54 627.43C1986.74 627.43 1970.3 620.965 1965.86 613.054C1961.41 605.143 1970.5 598.938 1986.02 598.938C2001.53 598.938 2017.87 605.23 2022.55 613.054Z" fill="white"/>
<path d="M67.096 839.182C61.2809 849.521 41.8631 858 23.7708 858C5.67851 858 -3.91601 849.53 2.26993 839.182C8.38486 828.958 27.6527 820.749 45.3663 820.749C63.0798 820.749 72.8401 828.958 67.0881 839.182H67.096Z" fill="white"/>
<path d="M485.223 839.182C481.806 849.521 464.353 858 446.269 858C428.184 858 416.617 849.53 420.404 839.182C424.144 828.958 441.511 820.749 459.224 820.749C476.938 820.749 488.6 828.958 485.223 839.182Z" fill="white"/>
<path d="M903.349 839.182C902.339 849.521 886.843 858 868.759 858C850.674 858 837.142 849.53 838.531 839.182C839.92 828.833 855.361 820.749 873.082 820.749C890.804 820.749 904.359 828.958 903.357 839.182H903.349Z" fill="white"/>
<path d="M1321.47 839.182C1322.86 849.521 1309.33 858 1291.24 858C1273.16 858 1257.66 849.53 1256.65 839.182C1255.64 828.833 1269.2 820.749 1286.93 820.749C1304.65 820.749 1320.1 828.958 1321.48 839.182H1321.47Z" fill="white"/>
<path d="M1739.6 839.182C1743.38 849.521 1731.82 858 1713.73 858C1695.65 858 1678.19 849.53 1674.78 839.182C1671.4 828.958 1683.06 820.749 1700.78 820.749C1718.49 820.749 1735.86 828.958 1739.6 839.182Z" fill="white"/>
<path d="M2157.72 839.182C2163.91 849.521 2154.31 858 2136.22 858C2118.14 858 2098.71 849.53 2092.9 839.182C2087.15 828.958 2096.9 820.749 2114.62 820.749C2132.33 820.749 2151.6 828.958 2157.71 839.182H2157.72Z" fill="white"/>
</g>
</mask>
<g mask="url(#mask0_2_696)">
<rect y="-2897" width="2160" height="3840" fill="#D9D9D9"/>
</g>
<defs>
<clipPath id="clip0_2_696">
<rect width="5522" height="858" fill="white" transform="translate(-1681)"/>
</clipPath>
</defs>
</svg>
