<svg width="602" height="218" viewBox="0 0 602 218" fill="none" xmlns="http://www.w3.org/2000/svg">
<g clip-path="url(#clip0_2_424)">
<path d="M92.5353 142.271C92.5353 147.597 91.4129 152.642 89.2033 157.276C87.0288 161.84 83.9306 165.864 80.0257 169.243C76.1794 172.563 71.5731 175.202 66.3354 177.08C61.1213 178.933 55.4044 179.872 49.3365 179.872C43.8533 179.872 38.6159 179.156 33.7874 177.76C29.0876 176.376 24.7151 174.592 20.7869 172.445C16.8235 170.287 13.2811 167.87 10.2882 165.289C7.28357 162.708 4.69984 160.068 2.6188 157.452L1.96411 156.631L0 154.179L7.02636 147.128L7.91489 146.236L10.5805 143.562L13.0473 146.424L13.854 147.363C15.8064 149.603 18.0277 151.833 20.4946 154.003C22.7977 156.056 25.4984 157.898 28.5264 159.493C31.5309 161.065 34.8396 162.356 38.3587 163.318C41.7374 164.245 45.5136 164.714 49.5705 164.714C53.3817 164.714 57.0411 164.151 60.4432 163.036C63.8102 161.922 66.733 160.373 69.1413 158.426C71.4914 156.525 73.432 154.179 74.8935 151.457C76.2614 148.876 76.9628 145.873 76.9628 142.517C76.9628 139.197 76.2027 136.429 74.7064 134.294C72.9878 131.841 70.7313 129.73 68.0189 127.993C65.0495 126.116 61.6356 124.497 57.8595 123.172L49.5705 120.297L45.4785 118.878C41.1996 117.458 36.7453 115.851 32.2324 114.126C27.4975 112.308 23.1368 110.02 19.2904 107.357C15.2219 104.542 11.8548 101.128 9.29446 97.1739C6.55874 92.9738 5.17916 87.8705 5.17916 82.0045C5.17916 76.1035 6.46519 70.7772 8.99048 66.1782C11.4339 61.7318 14.6958 57.8603 18.6707 54.681C22.634 51.5252 27.2989 49.1083 32.548 47.5011C37.6572 45.9292 42.9883 45.1431 48.378 45.1431C53.7557 45.1431 58.6895 45.8118 63.0268 47.1492C67.3293 48.4632 71.2457 50.27 74.6362 52.5107C78.015 54.7398 80.9494 57.2854 83.3694 60.0776C85.6492 62.6939 87.6601 65.3217 89.3672 67.8794L89.9867 68.8179L91.8456 71.6219L89.1217 73.6044L88.2446 74.2497L83.6851 77.6285L82.6797 78.3676L79.6752 80.5733L77.6643 77.4291L76.9861 76.3733C75.6766 74.3438 74.1219 72.2554 72.3447 70.1789C70.7313 68.2899 68.7905 66.6124 66.5694 65.1928C64.313 63.7616 61.6474 62.5649 58.6311 61.6499C55.6614 60.7464 52.1424 60.2888 48.144 60.2888C44.625 60.2888 41.1176 60.7934 37.7273 61.7788C34.442 62.7409 31.4726 64.1955 28.8887 66.1078C26.422 67.9146 24.4111 70.2023 22.9029 72.9005C21.4766 75.4464 20.7518 78.5084 20.7518 82.0045C20.7518 85.0197 21.4415 87.5653 22.7977 89.5481C24.3643 91.8358 26.4571 93.8303 29.0057 95.4609C31.8351 97.2795 35.0733 98.8633 38.6275 100.165C42.2518 101.515 46.1799 102.864 50.3186 104.201L50.3536 104.213L50.3887 104.225C54.9951 105.82 59.7066 107.533 64.3949 109.316C69.3517 111.205 73.8997 113.551 77.9331 116.309C82.1654 119.206 85.6609 122.714 88.3032 126.726C91.109 131.009 92.5353 136.241 92.5353 142.271Z" fill="white"/>
<path d="M180.002 160.187V176.06L177.699 176.905L176.904 177.186C174.87 177.926 172.45 178.548 169.737 179.064C166.884 179.603 163.775 179.873 160.489 179.873C155.79 179.873 151.277 179.028 147.068 177.374C142.824 175.72 139.048 173.28 135.821 170.136C132.571 166.968 129.987 162.979 128.152 158.287C126.34 153.676 125.428 148.373 125.428 142.519V63.1764H105.564V48.0189H125.428V14.6536H140.521V48.0189H172.344V63.1764H140.521V142.754C140.521 150.156 142.508 155.741 146.425 159.354C150.458 163.073 155.275 164.962 160.735 164.962C162.991 164.962 165.271 164.739 167.528 164.317C169.831 163.883 171.888 163.32 173.654 162.628L175.244 162.017L180.002 160.187Z" fill="white"/>
<path d="M298.463 80.8312C295.529 73.6632 291.462 67.3515 286.363 62.0486C281.233 56.7459 275.082 52.5459 268.078 49.5777C261.065 46.6331 253.407 45.1431 245.317 45.1431C236.584 45.1431 228.224 46.8443 220.485 50.1996C212.769 53.5547 205.953 58.2711 200.212 64.2073C194.46 70.1437 189.901 77.2413 186.662 85.2895C183.424 93.3376 181.775 102.078 181.775 111.299C181.775 120.755 183.272 129.73 186.241 137.977C189.223 146.283 193.607 153.639 199.277 159.845C204.959 166.075 211.892 171.014 219.865 174.534C227.839 178.077 236.887 179.872 246.755 179.872C257.277 179.872 266.921 177.819 275.433 173.771C283.979 169.7 291.509 163.459 297.833 155.223L298.5 154.355L300.476 151.774L298.068 149.592L297.259 148.864L292.922 145.005L292.012 144.183L289.193 141.637L286.879 144.653L286.107 145.662C281.466 151.774 275.76 156.478 269.143 159.646C262.479 162.849 254.95 164.479 246.755 164.479C239.46 164.479 232.714 163.154 226.716 160.549C220.718 157.921 215.539 154.261 211.319 149.662C207.028 145.016 203.603 139.373 201.113 132.909C199.137 127.782 197.933 122.186 197.512 116.238H301.411L302.054 113.528L302.264 112.636C302.486 111.757 302.638 110.489 302.743 108.695C302.837 107.169 302.871 105.75 302.871 104.342C302.871 95.9069 301.387 87.9995 298.463 80.8312ZM198.155 101.081C198.903 96.5167 200.247 92.1644 202.165 88.0933C204.772 82.5558 208.232 77.6873 212.429 73.6162C216.615 69.557 221.572 66.2838 227.172 63.8787C232.702 61.4973 238.723 60.2888 245.083 60.2888C250.847 60.2888 256.365 61.2743 261.474 63.2218C266.5 65.1342 270.991 68.0202 274.826 71.7861C278.671 75.5872 281.78 80.2799 284.073 85.747C285.989 90.3106 287.112 95.4493 287.439 101.081H198.155Z" fill="white"/>
<path d="M336.803 22.9358V179.873H321.698V23.1821C321.698 20.2609 321.007 18.1609 319.674 16.9408C318.167 15.5916 315.84 14.9112 312.741 14.9112C311.513 14.9112 310.427 14.9464 309.469 15.0168C308.626 15.0754 307.692 15.2279 306.697 15.486L305.247 15.8497L300.887 16.9408V2.46369L303.096 1.5838L303.821 1.2905C304.991 0.821227 306.323 0.492738 307.935 0.269831C309.351 0.0938542 310.964 0 312.741 0C316.636 0 320.13 0.586593 323.171 1.74805C326.281 2.96816 328.898 4.68101 330.955 6.86314C333.026 9.03353 334.546 11.5559 335.47 14.3598C336.358 16.9877 336.803 19.8737 336.803 22.9358Z" fill="white"/>
<path d="M387.719 22.9358V179.873H372.624V23.1821C372.624 20.2609 371.936 18.1609 370.59 16.9408C369.083 15.5916 366.756 14.9112 363.657 14.9112C362.419 14.9112 361.367 14.9464 360.385 15.0168C359.555 15.0754 358.595 15.2397 357.613 15.486L356.153 15.8497L351.803 16.9291V2.46369L354.012 1.5838L354.737 1.2905C355.894 0.83296 357.239 0.492738 358.864 0.269831C360.257 0.0938542 361.869 0 363.657 0C367.552 0 371.046 0.586593 374.074 1.74805C377.207 2.96816 379.838 4.69273 381.874 6.86314C383.955 9.04527 385.473 11.5676 386.41 14.3715C387.274 17.0112 387.719 19.8855 387.719 22.9358Z" fill="white"/>
<path d="M433.395 48.0286H418.301V176.997H433.395V48.0286Z" fill="white"/>
<path d="M535.029 108.778C535.039 106.021 534.327 103.264 532.574 101.093C532.338 100.8 532.095 100.53 531.825 100.261C527.488 95.9079 519.186 95.9079 514.849 100.261C514.265 100.847 513.739 101.504 513.307 102.22C512.873 102.935 512.522 103.71 512.265 104.519C511.996 105.375 511.821 106.255 511.729 107.147C511.622 108.191 511.622 109.259 511.729 110.315C511.81 111.218 511.985 112.11 512.255 112.966C512.512 113.776 512.849 114.562 513.284 115.289C513.716 116.016 514.229 116.673 514.825 117.272C514.838 117.283 514.849 117.295 514.849 117.295C519.199 121.659 527.475 121.659 531.825 117.295C534.071 115.054 535.005 111.969 535.029 108.836C535.029 108.813 535.029 108.789 535.029 108.778Z" fill="#98C93C"/>
<path d="M535.133 96.9401C537.295 99.1107 538.688 101.762 539.318 104.847L546.778 97.5621L546.849 97.4917L587.23 55.9842L589.159 53.9899L594.933 48.0183H572.345L570.965 49.4027L535.471 85.8652L528.213 92.9631C530.877 93.667 533.191 94.9926 535.133 96.9401Z" fill="white"/>
<path d="M459.462 55.9842L499.796 97.4447L499.867 97.5151L507.36 104.836C507.991 101.762 509.371 99.1107 511.535 96.9401C513.464 95.0044 515.778 93.6788 518.442 92.9631L511.161 85.8537L475.735 49.4261L475.35 49.0508L474.321 48.0183H451.746L457.52 53.9899L459.462 55.9842Z" fill="white"/>
<path d="M596.094 170.99L594.129 168.996L546.523 120.391L546.5 120.368L546.463 120.344L539.182 113.235C538.504 116.085 537.158 118.561 535.125 120.602C533.067 122.667 530.576 124.028 527.699 124.697L535.065 131.9L577.89 175.578L578.204 175.906L579.246 176.985H601.996L596.094 170.99Z" fill="white"/>
<path d="M511.544 120.604C509.499 118.551 508.154 116.075 507.476 113.224L500.216 120.334L500.181 120.357L500.158 120.381L452.527 168.997L450.574 170.992L444.672 176.987H467.422L468.461 175.908L468.802 175.556L511.604 131.878L518.956 124.698C516.093 124.029 513.601 122.668 511.544 120.604Z" fill="white"/>
<path d="M437.544 205.683C437.544 209.214 436.479 212.053 434.34 214.2C432.202 216.347 429.372 217.415 425.852 217.415C422.334 217.415 419.505 216.347 417.364 214.2C415.225 212.053 414.16 209.214 414.16 205.683C414.16 202.152 415.225 199.312 417.364 197.165C419.505 195.019 422.334 193.951 425.852 193.951C429.372 193.951 432.202 195.019 434.34 197.165C436.479 199.312 437.544 202.152 437.544 205.683Z" fill="#E6B022"/>
<path d="M414.16 19.3573C414.16 15.826 415.225 12.9869 417.364 10.84C419.505 8.69308 422.334 7.62549 425.852 7.62549C429.372 7.62549 432.202 8.69308 434.34 10.84C436.479 12.9869 437.544 15.826 437.544 19.3573C437.544 22.8886 436.479 25.7277 434.34 27.8747C432.202 30.0217 429.372 31.0891 425.852 31.0891C422.334 31.0891 419.505 30.0217 417.364 27.8747C415.225 25.7277 414.16 22.8886 414.16 19.3573Z" fill="#1CBDC7"/>
</g>
<defs>
<clipPath id="clip0_2_424">
<rect width="602" height="218" fill="white"/>
</clipPath>
</defs>
</svg>
